<svg class="icon" viewBox="0 0 1024 1024" xmlns="http://www.w3.org/2000/svg" width="32" height="32"><defs><style/></defs><path d="M65.632 934.72c-15.744 0-26.272-10.496-26.272-26.24V118.176c0-15.744 10.496-26.272 26.272-26.272h212.672c10.496 0 23.616 5.248 31.52 13.12L614.4 488.352c10.496 13.12 10.496 34.144 0 49.888L307.2 921.6c-7.872 10.496-20.992 15.744-34.144 15.744L65.632 934.72zm942.624-446.336l-307.2-380.704c-13.12-15.744-36.768-20.992-55.136-5.248l-60.384 49.888c-18.368 13.12-20.992 39.392-5.248 55.136l249.44 307.2-249.44 309.824c-13.12 15.744-10.496 42.016 5.248 55.136l60.384 49.888c18.368 13.12 39.392 10.496 55.136-5.248l307.2-383.36c10.496-20.992 10.496-39.392 0-52.512z"/></svg>