<svg class="icon" viewBox="0 0 1024 1024" xmlns="http://www.w3.org/2000/svg" width="32" height="32"><defs><style/></defs><path d="M726.977 393.184c-12.544-12.447-32.832-12.32-45.248.256L448.447 629.25 345.184 523.137c-12.353-12.704-32.608-12.928-45.248-.64-12.673 12.32-12.96 32.608-.64 45.248l126.016 129.503c.064.097.193.097.257.193.063.064.096.193.16.256 2.016 1.984 4.512 3.2 6.88 4.545 1.248.673 2.24 1.792 3.52 2.303 3.872 1.6 8 2.4 12.096 2.4 4.065 0 8.128-.8 11.968-2.336 1.247-.513 2.209-1.536 3.392-2.176 2.4-1.344 4.896-2.529 6.944-4.545.064-.064.097-.193.193-.256.064-.097.16-.127.256-.193l256.224-259.008c12.446-12.542 12.318-32.8-.225-45.247z"/><path d="M832 928H192c-52.929 0-96-43.071-96-95.998v-640C96 139.072 139.07 96 192 96h640c52.927 0 96 43.072 96 96v640c0 52.928-43.071 96-96 96zM192 160c-17.632 0-32 14.37-32 32.002v640C160 849.666 174.367 864 192 864h640c17.665 0 32-14.336 32-32V192c0-17.631-14.337-32-32-32H192z"/></svg>