<svg class="icon" viewBox="0 0 1024 1024" xmlns="http://www.w3.org/2000/svg" width="32" height="32"><defs><style/></defs><path d="M832 96H192c-52.929 0-96 43.073-96 96.002v640C96 884.929 139.07 928 192 928h640c52.927 0 96-43.072 96-96V192c0-52.93-43.071-96-96-96zM727.231 438.433L471.008 697.44c-.064.064-.193.096-.257.193-.096.063-.096.192-.192.256-2.05 1.984-4.576 3.2-6.945 4.545-1.183.672-2.143 1.696-3.392 2.176-3.84 1.536-7.904 2.336-11.967 2.336-4.096 0-8.225-.8-12.097-2.4-1.28-.543-2.303-1.632-3.52-2.303-2.368-1.344-4.831-2.529-6.88-4.545-.064-.063-.097-.192-.16-.256-.064-.096-.193-.096-.256-.193L299.325 567.745c-12.32-12.673-12.033-32.928.64-45.248 12.673-12.288 32.895-12.064 45.248.64l103.263 106.112 233.28-235.809c12.417-12.576 32.705-12.672 45.248-.256 12.516 12.448 12.644 32.705.227 45.248z"/></svg>