<svg class="icon" viewBox="0 0 1024 1024" xmlns="http://www.w3.org/2000/svg" width="32" height="32"><defs><style/></defs><path d="M512 960C264.96 960 64 759.04 64 512S264.96 64 512 64s448 200.96 448 448-200.96 448-448 448zm0-831.713c-211.584 0-383.713 172.129-383.713 383.713 0 211.552 172.129 383.713 383.713 383.713 211.552 0 383.713-172.16 383.713-383.713 0-211.584-172.161-383.713-383.713-383.713z"/><path d="M557.055 513.376l138.368-136.864c12.576-12.416 12.673-32.672.256-45.248s-32.704-12.673-45.248-.256l-138.56 137.024-136.448-136.864c-12.513-12.513-32.735-12.577-45.248-.064-12.513 12.48-12.544 32.735-.064 45.248l136.256 136.672L328.99 648.928c-12.577 12.447-12.673 32.672-.257 45.248a31.886 31.886 0 0022.752 9.504c8.128 0 16.256-3.103 22.497-9.248l137.567-136.064 138.688 139.137c6.24 6.271 14.432 9.407 22.657 9.407a31.937 31.937 0 0022.591-9.344c12.513-12.48 12.544-32.704.064-45.248L557.055 513.376z"/></svg>