<svg class="icon" viewBox="0 0 1024 1024" xmlns="http://www.w3.org/2000/svg" width="32" height="32"><defs><style/></defs><path d="M828.704 196.576C744.096 112.384 631.648 66.016 512 66.016s-232.129 46.368-316.737 130.56C110.624 280.8 64 392.832 64 512c0 119.2 46.624 231.2 131.232 315.424 84.608 84.192 197.089 130.56 316.737 130.56s232.129-46.368 316.704-130.56C913.345 743.17 959.97 631.136 959.936 511.97c.031-119.168-46.56-231.169-131.232-315.393zM736.001 544H544v192c0 17.696-14.336 32-32.001 32s-32-14.303-32-32V544H288c-17.664 0-32-14.336-32-32.001s14.336-32 32-32h192V288c0-17.664 14.337-32 32.002-32s32 14.336 32 32v192h192c17.696 0 32.001 14.337 32.001 32.002S753.697 544 736.001 544z"/></svg>