<svg class="icon" viewBox="0 0 1024 1024" xmlns="http://www.w3.org/2000/svg" width="32" height="32"><defs><style/></defs><path d="M557.312 513.249l265.28-263.904c12.544-12.48 12.608-32.705.128-45.249-12.513-12.576-32.705-12.607-45.249-.127L512.127 467.904l-263.039-263.84c-12.447-12.48-32.704-12.544-45.248-.064-12.513 12.48-12.544 32.735-.064 45.28l262.976 263.776L201.6 776.801c-12.543 12.48-12.607 32.704-.127 45.248a31.936 31.936 0 0022.688 9.44c8.16 0 16.32-3.103 22.56-9.311L511.938 558.37l265.44 266.24c6.24 6.272 14.433 9.408 22.657 9.408a31.937 31.937 0 0022.592-9.344c12.512-12.48 12.543-32.705.063-45.248L557.312 513.249z"/></svg>