<svg class="icon" viewBox="0 0 1131 1024" xmlns="http://www.w3.org/2000/svg" width="35.344" height="32"><defs><style/></defs><path d="M1087.327 352.337a564.278 564.278 0 00-121.263-179.874A564.278 564.278 0 00565.895 6.737a564.278 564.278 0 00-400.168 165.726A564.278 564.278 0 000 572.632c0 167.612 73.647 325.524 201.97 433.394l2.156 1.752c7.33 6.063 16.546 9.485 26.031 9.485h671.61c9.485 0 18.7-3.422 26.03-9.485l2.156-1.752a565.167 565.167 0 00201.836-433.394c0-76.423-15.037-150.448-44.463-220.295zM880.91 921.277H250.88A468.776 468.776 0 0195.96 572.632c0-125.575 48.91-243.55 137.701-332.208a466.755 466.755 0 01332.234-137.7c125.575 0 243.55 48.909 332.207 137.7a466.755 466.755 0 01137.701 332.208c0 133.39-56.212 259.584-154.866 348.645zM706.75 397.689a10.132 10.132 0 00-14.283 0L585.73 504.401a70.575 70.575 0 00-68.339 18.324 70.683 70.683 0 000 100.056 70.683 70.683 0 00100.056 0c18.566-18.594 24.63-44.733 18.324-68.339L742.48 447.731a10.132 10.132 0 000-14.283l-35.73-35.758zM538.112 269.474h55.565a10.132 10.132 0 0010.105-10.106V158.316a10.132 10.132 0 00-10.105-10.105h-55.539a10.132 10.132 0 00-10.105 10.105v101.052c0 5.552 4.527 10.106 10.105 10.106zM866.52 544.849v55.565c0 5.578 4.554 10.106 10.105 10.106h101.053a10.132 10.132 0 0010.105-10.106v-55.538a10.132 10.132 0 00-10.105-10.105H876.625a10.132 10.132 0 00-10.105 10.105zm16.06-249.102l-39.289-39.289a10.132 10.132 0 00-14.282 0l-71.491 71.491a10.132 10.132 0 000 14.283l39.29 39.289a10.132 10.132 0 0014.281 0l71.492-71.492a10.132 10.132 0 000-14.282zm-579.287-39.289a10.132 10.132 0 00-14.282 0l-39.29 39.29a10.132 10.132 0 000 14.281l71.492 71.492a10.132 10.132 0 0014.282 0l39.29-39.29a10.132 10.132 0 000-14.282l-71.492-71.49zm-53.22 278.286H149.018a10.132 10.132 0 00-10.105 10.105v55.565c0 5.578 4.554 10.106 10.105 10.106h101.053a10.132 10.132 0 0010.105-10.106v-55.538a10.132 10.132 0 00-10.105-10.105z"/></svg>