<svg class="icon" viewBox="0 0 1311 1024" xmlns="http://www.w3.org/2000/svg" width="40.969" height="32"><defs><style/></defs><path d="M281.125 651.432c0-25.674-9.141-47.6-27.424-65.76-18.282-18.17-40.332-27.25-66.169-27.25-25.837 0-47.896 9.08-66.179 27.25-18.272 18.16-27.413 40.086-27.413 65.76 0 25.673 9.141 47.6 27.413 65.759 18.283 18.17 40.332 27.25 66.18 27.25 25.836 0 47.886-9.08 66.168-27.25 18.283-18.17 27.424-40.086 27.424-65.76zM421.508 325.9c0-25.673-9.14-47.6-27.423-65.76-18.272-18.17-40.332-27.249-66.169-27.249-25.837 0-47.897 9.08-66.169 27.25-18.282 18.16-27.424 40.086-27.424 65.759 0 25.673 9.142 47.6 27.424 65.76 18.272 18.159 40.332 27.249 66.169 27.249 25.837 0 47.897-9.09 66.169-27.25 18.282-18.17 27.423-40.086 27.423-65.759zM734.45 675.405l73.857-277.573c2.917-12.59 1.095-24.342-5.487-35.244-6.582-10.892-15.97-18.037-28.15-21.436-12.182-3.378-23.882-1.811-35.102 4.73-11.209 6.54-18.528 16.102-21.937 28.703l-73.846 277.573c-29.246 2.426-55.328 12.96-78.238 31.61-22.909 18.652-38.264 42.503-46.064 71.574-9.745 37.302-4.872 72.66 14.628 106.092 19.5 33.422 48.01 54.97 85.547 64.664 37.537 9.694 73.12 4.852 106.756-14.536 33.627-19.368 55.319-47.702 65.074-85.014 7.8-29.072 6.336-57.397-4.392-85.015-10.717-27.608-28.273-49.647-52.646-66.128zm482.58-23.973c0-25.674-9.141-47.6-27.413-65.76-18.283-18.17-40.332-27.25-66.18-27.25-25.836 0-47.886 9.08-66.168 27.25-18.283 18.16-27.424 40.086-27.424 65.76 0 25.673 9.141 47.6 27.424 65.759 18.282 18.17 40.332 27.25 66.169 27.25 25.837 0 47.896-9.08 66.179-27.25 18.272-18.17 27.413-40.086 27.413-65.76zM749.077 186.387c0-25.684-9.141-47.6-27.424-65.77-18.262-18.15-40.331-27.24-66.168-27.24-25.837 0-47.897 9.08-66.17 27.24-18.282 18.17-27.423 40.086-27.423 65.77 0 25.673 9.141 47.6 27.424 65.759 18.272 18.16 40.332 27.25 66.169 27.25 25.837 0 47.896-9.09 66.168-27.25 18.283-18.17 27.424-40.086 27.424-65.76zM1076.646 325.9c0-25.673-9.142-47.6-27.424-65.76-18.272-18.17-40.332-27.249-66.169-27.249-25.837 0-47.897 9.08-66.169 27.25-18.282 18.16-27.423 40.086-27.423 65.759 0 25.673 9.14 47.6 27.423 65.76 18.272 18.159 40.332 27.249 66.17 27.249 25.836 0 47.896-9.09 66.168-27.25 18.282-18.17 27.424-40.086 27.424-65.759zm233.976 325.532c0 126.43-34.364 243.424-103.092 350.969-9.264 14.044-22.418 21.067-39.493 21.067H142.942c-17.064 0-30.228-7.023-39.492-21.067C34.71 895.337.347 778.354.347 651.43c0-88.167 17.3-172.454 51.91-252.872 34.61-80.408 81.165-149.689 139.657-207.812C250.415 132.604 320.116 86.345 401.035 51.95 481.955 17.556 566.765.358 655.485.358S829.014 17.556 909.934 51.95c80.92 34.395 150.62 80.664 209.121 138.797 58.492 58.123 105.048 127.404 139.657 207.812 34.6 80.418 51.91 164.705 51.91 252.873z"/></svg>