<svg class="icon" viewBox="0 0 1024 1024" xmlns="http://www.w3.org/2000/svg" width="32" height="32"><defs><style/></defs><path d="M607.898 768.043c-17.718 0-31.995-14.277-31.995-31.995V383.935c0-17.717 14.277-31.994 31.995-31.994s31.994 14.277 31.994 31.994v351.941c0 17.718-14.277 32.167-31.994 32.167zm-191.968 0c-17.717 0-31.995-14.277-31.995-31.995V383.935c0-17.717 14.278-31.994 31.995-31.994 17.718 0 31.995 14.277 31.995 31.994v351.941c0 17.718-14.277 32.167-31.995 32.167zm512.086-544.081H768.043v-63.989c0-52.98-42.66-95.984-95.296-95.984H351.941c-52.98 0-95.984 43.004-95.984 95.984v63.99H95.984c-17.718 0-31.995 14.277-31.995 31.994s14.277 31.995 31.995 31.995h832.032c17.718 0 31.995-14.278 31.995-31.995s-14.277-31.995-31.995-31.995zm-608.07-63.989c0-17.545 14.45-31.995 31.995-31.995h320.806c17.546 0 31.307 14.106 31.307 31.995v63.99H319.946v-63.99z"/><path d="M736.048 960.01H288.124c-52.98 0-95.984-43.003-95.984-95.983V383.59c0-17.717 14.277-31.994 31.994-31.994s31.995 14.277 31.995 31.994v480.436c0 17.717 14.45 31.995 31.995 31.995H736.22c17.718 0 31.995-14.278 31.995-31.995v-479.23c0-17.718 14.277-31.995 31.995-31.995s31.994 14.277 31.994 31.995v479.23c-.172 52.81-43.175 95.985-96.156 95.985z"/></svg>