<svg class="icon" viewBox="0 0 1024 1024" xmlns="http://www.w3.org/2000/svg" width="32" height="32"><defs><style/></defs><path d="M319.184 567.241c-.665.885-1.329 1.799-1.633 2.905L266.02 765.454c-2.989 11.375.082 23.635 8.22 32.27 6.088 6.143 14.114 9.52 22.666 9.52 2.822 0 5.645-.331 8.413-1.106l187.558-52.89c.304 0 .443.277.664.277 2.159 0 4.29-.803 5.867-2.518l501.54-518.448c14.89-15.415 23.053-36.421 23.053-59.281 0-25.905-10.627-51.782-29.225-70.99l-47.354-49.04c-18.597-19.234-43.672-30.25-68.691-30.25-22.112 0-42.426 8.442-57.371 23.83L319.93 565.44c-.526.499-.387 1.219-.747 1.8zM951.85 181.774l-49.816 51.476-80.73-84.825L870.4 97.667c7.749-8.08 22.805-6.89 31.716 2.353l47.409 49.041c4.926 5.12 7.749 11.9 7.749 18.626-.028 5.508-1.91 10.517-5.424 14.087zM408.355 575.378l361.886-374.176 80.814 84.882-361.224 373.455-81.476-84.161zm-65.924 151.717l26.154-99.245 69.77 72.124-95.924 27.121zm641.19-339.857c-18.985 0-34.539 15.97-34.622 35.868v483.355c0 25.352-19.899 45.941-44.448 45.941h-790.86c-24.52 0-44.502-20.59-44.502-45.94v-788.95c0-25.38 19.982-45.97 44.502-45.97h509.344c19.096 0 34.595-16.052 34.595-35.784C657.63 16.053 642.131 0 623.035 0h-514.63C48.654 0 0 50.259 0 112.086v799.855C0 973.77 48.654 1024 108.405 1024h801.377c59.808 0 108.405-50.231 108.405-112.059V422.856c-.054-19.649-15.58-35.618-34.566-35.618z"/></svg>