<svg class="icon" viewBox="0 0 1024 1024" xmlns="http://www.w3.org/2000/svg" width="32" height="32"><defs><style/></defs><path d="M678.839 37.888H151.918A151.771 151.771 0 000 189.878v682.277A151.771 151.771 0 00151.918 1024h682.276A151.771 151.771 0 00986.04 872.082V352.914l-75.85 75.703V872.01c0 42.13-33.864 76.069-76.068 76.069h-682.13A75.922 75.922 0 0175.85 872.01V189.806c0-42.057 34.012-76.069 76.142-76.069h451.072l75.849-75.849zM320.659 698.88l230.107-65.317-164.352-163.328-65.829 228.645zm614.546-447.488L770.925 88.064l-361.618 359.35 164.353 163.33 361.546-359.351zm76.36-137.216L908.947 12.069c-17.115-16.823-45.568-15.946-63.78 2.048L795.94 63.122 960.293 226.45l49.225-49.005c18.212-17.994 19.163-46.373 2.048-63.342v.073z"/></svg>