<svg class="icon" viewBox="0 0 1024 1024" xmlns="http://www.w3.org/2000/svg" width="32" height="32"><defs><style/></defs><path d="M83.464 997.053l149.157-149.158 74.579-74.578v149.157c-.728 11.216 3.35 22.14 11.216 30.006s18.79 12.09 30.006 11.216c11.216.728 22.14-3.35 30.006-11.216s12.09-18.79 11.508-30.006V673.83c.582-11.216-3.496-22.14-11.508-30.006-7.865-7.866-18.936-12.09-30.151-11.508H99.924c-21.558 1.748-38.31 19.665-38.31 41.368 0 21.704 16.752 39.766 38.31 41.368H249.08l-74.579 74.579L25.345 938.934c-16.023 16.022-16.023 42.096 0 58.119s42.096 16.022 58.119 0zM248.935 308.51H99.778c-11.216-.728-22.14 3.35-30.006 11.216s-11.944 18.79-11.216 30.006c-.728 11.216 3.35 22.14 11.216 30.006 7.866 8.012 18.79 12.09 30.006 11.508h257.093c8.157 0 16.46-8.157 24.908-16.606 6.409-6.555 9.322-15.731 8.157-24.908V101.235c.728-11.216-3.496-22.14-11.508-30.007-8.01-7.865-18.936-11.944-30.006-11.215-11.216-.729-22.14 3.35-30.006 11.215-7.866 7.866-12.09 18.79-11.216 30.007v149.157L83.318 26.656c-16.022-16.023-42.096-16.023-58.119 0s-16.022 42.096 0 58.119l223.736 223.736zm423.584 82.736h248.644c11.216.728 22.14-3.496 30.006-11.508s11.945-18.936 11.216-30.006c.729-11.216-3.35-22.14-11.216-30.006-7.865-7.866-18.79-11.944-30.006-11.216H772.006l74.578-74.579L995.742 84.775c16.022-16.023 16.022-42.096 0-58.119s-42.096-16.023-58.12 0L788.466 175.813l-74.578 74.579V101.235c-1.748-21.558-19.665-38.31-41.368-38.31-21.704 0-39.766 16.752-41.368 38.31v248.644c-.728 11.216 3.496 22.14 11.507 30.152 7.72 7.72 18.79 11.944 29.86 11.216zm0 572.45c11.216.727 22.14-3.351 30.006-11.217 7.866-7.865 11.944-18.79 11.216-30.006V773.317l74.579 74.578 149.157 149.158c16.023 16.022 42.096 16.022 58.119 0s16.023-42.097 0-58.12L846.584 789.777l-74.578-74.578h149.157c21.558-1.748 38.309-19.665 38.309-41.368 0-21.704-16.751-39.766-38.309-41.368H672.519c-11.216-.728-22.14 3.496-30.006 11.507-7.866 7.866-12.09 18.936-11.508 30.007V922.62c-.728 11.216 3.496 22.14 11.508 30.006 8.011 7.72 18.936 11.798 30.006 11.07zm0 0"/></svg>