<svg class="icon" viewBox="0 0 1024 1024" xmlns="http://www.w3.org/2000/svg" width="32" height="32"><defs><style/></defs><path d="M95.984 896.022c-17.718 0-31.995-14.278-31.995-31.995V415.93c0-17.717 14.277-31.995 31.995-31.995s31.994 14.278 31.994 31.995v447.925c0 17.89-14.277 32.167-31.994 32.167zm768.215-512.087H674.81c13.761-31.994 29.587-114.733 20.47-190.075-7.225-59.861-42.487-105.789-93.748-123.334-38.015-12.901-78.266-6.537-99.94 15.481-25.802 26.318-37.843 75.858-50.744 128.323-8.429 34.23-17.03 69.837-27.866 88.243-31.135 52.98-96.328 77.062-109.401 81.362H223.79c-17.717 0-31.994 14.278-31.994 31.995v447.925c0 17.717 14.277 31.994 31.994 31.994h86.523c26.835 14.45 126.43 63.99 241.852 63.99h215.878c35.607 0 96.844-13.761 119.722-51.777 23.05-38.53 71.902-388.751 71.902-427.455.172-53.324-52.12-96.672-95.468-96.672zm-30.963 491.273c-4.816 8.084-36.467 20.641-64.849 20.641h-216.05c-114.217 0-215.19-63.989-216.221-63.989h-80.159V447.925h63.99c2.58 0 4.988-.86 7.396-1.548.516-.172 1.032 0 1.548-.172.172-.172.86-.344 1.72-.516.86-.344 1.72-.344 2.58-.86 19.438-6.365 102.52-37.328 145.18-109.918 15.482-26.318 24.942-64.849 34.747-105.444 9.117-37.843 20.642-84.975 34.059-98.564 3.096-2.58 18.061-6.02 36.81 1.376 15.31 6.02 41.972 23.05 47.649 69.666 12.557 102.52-31.479 200.052-31.823 201.084-4.644 9.977-3.784 21.158 2.064 30.275 5.849 9.116 15.998 14.449 26.835 14.449h235.315c8.773 0 31.65 14.965 31.65 32.854.172 42.832-49.196 364.326-62.44 394.6z"/></svg>