<svg class="icon" viewBox="0 0 1024 1024" xmlns="http://www.w3.org/2000/svg" width="32" height="32"><defs><style/></defs><path d="M864.199 383.935H674.983c13.761-31.994 29.587-114.733 20.298-189.731-7.225-60.033-42.315-106.133-93.576-123.506-38.015-12.901-78.266-6.709-99.94 15.481-25.802 26.318-37.843 75.858-50.744 128.323-8.429 34.402-17.03 69.837-27.866 88.243-31.135 52.98-96.672 81.363-109.573 81.363h-89.62c-17.717 0-31.994 14.449-31.994 32.166V864.2c0 17.717 14.277 31.995 31.994 31.995h86.523c26.835 0 126.43 63.989 241.852 63.989h215.878c35.607 0 96.844-13.761 119.722-51.776 23.05-38.532 71.902-388.752 71.902-427.456 0-53.84-52.293-97.016-95.64-97.016zm-768.215.173c-17.718 0-31.995 14.277-31.995 31.994v447.925c0 17.717 14.277 31.995 31.995 31.995s31.994-14.278 31.994-31.995V416.102c0-17.717-14.277-31.994-31.994-31.994z"/></svg>