<svg class="icon" viewBox="0 0 1024 1024" xmlns="http://www.w3.org/2000/svg" width="32" height="32"><defs><style/></defs><path d="M102.4 488.448l37.888-34.304-18.432 116.736H76.8l3.584-116.736h364.032L448 570.88h-44.544l-18.944-116.736 37.376 34.304H102.4zm169.984 351.744l93.696 9.728v30.208H159.232V849.92l92.672-9.728h20.48zm-38.912-186.88c0-66.048 0-133.12-1.536-199.168h60.928c-1.024 64.512-1.024 131.584-1.024 199.168v27.648c0 66.56 0 133.12 1.536 199.168h-61.44c1.536-65.024 1.536-131.584 1.536-199.168v-27.648zm144.896-418.304l62.464-56.32-30.72 192.512h-74.24l6.144-192.512h599.04l5.632 192.512H872.96l-30.72-192.512 61.952 56.32H378.368zM657.92 814.592l153.6 15.872v49.664H472.064v-49.664l152.064-15.872h33.792zm-64-308.224c0-109.056 0-218.624-2.048-327.68h100.864c-2.048 107.008-2.048 216.576-2.048 327.68v45.568c0 109.056 0 219.136 2.048 328.192H591.872c2.048-107.008 2.048-216.576 2.048-327.68v-46.08z"/></svg>