<svg class="icon" viewBox="0 0 1024 1024" xmlns="http://www.w3.org/2000/svg" width="32" height="32"><defs><style/></defs><path d="M946.496 160l6.016 232h-67.52c0-54.336-11.168-95.264-33.504-122.752-22.336-27.52-53.312-41.088-92.992-40.736l-48.992.48v516.48a64 64 0 0064 64h13.984v67.52H488.512v-67.52l9.408-.096a64 64 0 0063.584-64v-515.36h-47.52c-38.976 0-69.76 13.152-92.224 39.488-22.496 26.336-33.92 67.168-34.24 122.496H320l6.016-232h620.48z"/><path d="M455.456 428.992l3.744 144.96h-42.176c0-33.92-6.976-59.52-20.928-76.704-13.952-17.184-33.312-25.664-58.112-25.44l-30.624.32V786.08c0 26.912 21.824 48.736 48.736 48.736v42.176H169.28v-42.176a47.008 47.008 0 0045.6-46.976V472.736h-29.664c-24.384 0-43.584 8.224-57.632 24.672-14.08 16.48-21.184 41.984-21.408 76.544H64l3.744-144.96h387.712z"/></svg>