<svg class="icon" viewBox="0 0 1024 1024" xmlns="http://www.w3.org/2000/svg" width="32" height="32"><defs><style/></defs><path d="M518.967 653.826v-6.709c89.79-64.161 89.447-175.282 89.275-265.59v-13.589c0-130.73-78.783-208.653-210.717-208.653h-6.709c-126.602 0-196.268 74.138-196.268 208.653 0 67.946 0 205.73 103.552 279.18v5.332C178.035 669.479 65.365 718.675 65.365 797.113c0 109.057 107.681 162.038 329.063 162.038 283.308 0 342.824-88.072 342.824-162.038 0-83.942-138.815-127.978-218.285-143.287z"/><path d="M929.564 767.699c-17.545 0-31.822-14.277-31.994-31.823-.344-23.394-101.66-88.415-197.3-99.768-16.17-1.892-28.21-15.653-28.21-31.822V538.06c0-9.805 4.471-18.921 12.04-24.942 54.013-43.175 94.952-137.267 94.952-218.802 0-109.917-74.31-132.967-136.58-132.967-17.717 0-31.994-14.277-31.994-31.994s14.277-31.995 31.995-31.995c123.678 0 200.568 75.514 200.568 197.128 0 94.78-44.207 200.397-106.993 258.365v24.598c91.856 19.61 225.683 83.943 225.683 158.597 0 17.546-14.277 31.651-31.823 31.823-.172-.172-.172-.172-.344-.172z"/></svg>