<svg class="icon" viewBox="0 0 1024 1024" xmlns="http://www.w3.org/2000/svg" width="32" height="32"><defs><style/></defs><path d="M401.309 960.183c-226.543 0-336.632-52.98-336.632-162.21 0-76.718 114.39-127.118 229.983-144.663v-6.537c-86.35-66.053-97.876-184.055-97.876-281.071 0-132.107 77.75-211.061 208.137-211.061h6.88c130.387 0 208.138 78.954 208.138 211.061 0 97.016-11.525 214.846-97.876 281.071v6.537c115.593 17.545 229.983 67.773 229.983 144.663 0 74.139-60.893 162.21-350.737 162.21zm3.612-741.381c-95.64 0-144.148 49.54-144.148 147.072 0 91.34 9.805 190.764 83.083 237.38 9.289 5.848 14.793 15.997 14.793 27.006v51.26c0 16.341-12.385 30.102-28.554 31.823-121.098 12.729-201.428 59.344-201.428 84.63 0 65.194 91.683 98.22 272.642 98.22 182.163 0 286.747-35.778 286.747-98.22 0-25.286-80.33-71.901-201.428-84.63-16.341-1.72-28.554-15.482-28.554-31.823v-51.26c0-11.01 5.676-21.158 14.793-27.007 73.106-46.615 83.083-146.212 83.083-237.379 0-97.532-48.508-147.072-144.148-147.072h-6.88z"/><path d="M899.118 763.743c-17.718 0-31.995-14.278-31.995-31.995 0-24.426-91.167-83.943-196.956-95.124-16.341-1.72-28.726-15.481-28.726-31.822v-66.398c0-11.009 5.676-21.158 14.793-27.006 82.739-52.636 91.683-169.778 91.683-217.77 0-110.433-74.654-133.655-137.267-133.655-17.717 0-31.995-14.277-31.995-31.995s14.278-31.994 31.995-31.994c124.194 0 201.257 75.686 201.257 197.644 0 55.733-10.665 188.7-106.477 261.29v22.19c102.176 18.577 225.682 79.986 225.682 154.64.172 17.717-14.277 31.995-31.994 31.995z"/></svg>