<svg class="icon" viewBox="0 0 1024 1024" xmlns="http://www.w3.org/2000/svg" width="32" height="32"><defs><style/></defs><path d="M17.067 2.816c-5.718 0-8.534 2.901-11.35 5.717C2.816 11.35 0 14.251 0 19.883V384c0 2.816 0 5.717 2.816 5.717h5.717L130.816 267.35l165.035 165.035c2.816 2.816 8.533 5.632 11.349 5.632 5.717 0 8.533-2.816 11.35-5.632l110.933-110.933a21.59 21.59 0 005.717-11.435c0-5.632-2.816-8.533-5.717-11.35L270.25 128 389.717 8.533c2.816-2.816 2.816-2.816 0-5.717C389.717 0 386.816 0 386.816 0L17.066 2.816zm0 1021.184c-5.718 0-8.534-2.816-11.35-5.717A21.59 21.59 0 010 1006.933V640c0-2.816 0-5.717 2.816-5.717h5.717L130.816 756.65l165.035-165.035a21.59 21.59 0 0111.349-5.632c5.717 0 8.533 2.816 11.35 5.632l110.933 110.933c2.901 2.902 5.717 8.534 5.717 11.435 0 2.816-2.816 8.533-5.717 11.35l-164.95 164.949L384 1009.749c2.816 2.902 2.816 2.902 0 5.718 0 2.816-2.816 2.816-5.717 2.816L17.067 1024zM1006.933 2.816c5.718 0 8.534 2.901 11.35 5.717 2.901 2.816 5.717 5.718 5.717 11.35V384c0 2.816 0 5.717-2.816 5.717h-5.717L893.184 267.35 728.149 432.384a21.59 21.59 0 01-11.349 5.632c-5.717 0-8.533-2.816-11.35-5.632L594.518 321.451a21.59 21.59 0 01-5.717-11.435c0-5.632 2.816-8.533 5.717-11.35l164.95-164.949L640 14.251c-2.816-2.902-2.816-2.902 0-5.718C634.283 0 637.184 0 637.184 0l369.75 2.816zm0 1021.184c5.718 0 8.534-2.816 11.35-5.717a21.59 21.59 0 005.717-11.35V640c0-2.816 0-5.717-2.816-5.717h-5.717L893.184 756.65 728.149 591.616a21.59 21.59 0 00-11.349-5.632c-5.717 0-8.533 2.816-11.35 5.632L594.518 702.549a21.59 21.59 0 00-5.717 11.435c0 2.816 2.816 8.533 5.717 11.35l164.95 164.949L640 1009.749c-2.816 2.902-2.816 2.902 0 5.718 0 2.816 2.816 2.816 5.717 2.816l361.216 5.717z"/></svg>