<svg class="icon" viewBox="0 0 1024 1024" xmlns="http://www.w3.org/2000/svg" width="32" height="32"><defs><style/></defs><path d="M85.631 938.369h213.183a42.636 42.636 0 110 85.346H42.994a42.636 42.636 0 01-42.709-42.71V725.186a42.636 42.636 0 1185.346 0V938.37zM73.2 1011.355a42.856 42.856 0 11-60.481-60.627l298.455-298.382a42.856 42.856 0 0160.554 60.554L73.272 1011.355zm865.309-72.986V725.186a42.636 42.636 0 1185.346 0v255.82a42.636 42.636 0 01-42.71 42.709h-255.82a42.636 42.636 0 110-85.346h213.183zm72.986 12.432a42.856 42.856 0 11-60.627 60.554L652.485 712.827a42.856 42.856 0 0160.554-60.554l298.455 298.455zM85.631 85.42v213.183a42.636 42.636 0 01-85.346 0V42.856c0-23.622 19.088-42.71 42.71-42.71h255.819a42.636 42.636 0 010 85.346H85.704zm-73.06-12.36a42.856 42.856 0 0160.7-60.48l298.383 298.455a42.856 42.856 0 01-60.554 60.554L12.645 73.133zm925.863 12.433H725.325a42.636 42.636 0 110-85.346h255.82c23.621 0 42.709 19.088 42.709 42.71v255.819a42.636 42.636 0 11-85.346 0V85.565zm12.433-72.986a42.856 42.856 0 1160.554 60.627L712.966 371.515a42.856 42.856 0 01-60.554-60.554L950.867 12.506z"/></svg>