<svg class="icon" viewBox="0 0 1024 1024" xmlns="http://www.w3.org/2000/svg" width="32" height="32"><defs><style/></defs><path d="M367.484 280.57H491.27v462.864H367.484v41.458h289.031v-41.458H532.728V280.57h123.787v-41.462H367.484v41.462zm0 0"/><path d="M852.457 102.096c38.293 0 69.447 31.154 69.447 69.447v680.914c0 38.293-31.154 69.447-69.447 69.447H171.543c-38.293 0-69.447-31.154-69.447-69.447V171.543c0-38.293 31.154-69.447 69.447-69.447h680.914m0-39.706H171.543c-60.284 0-109.153 48.869-109.153 109.153v680.914c0 60.284 48.869 109.153 109.153 109.153h680.914c60.284 0 109.153-48.869 109.153-109.153V171.543c0-60.284-48.87-109.153-109.153-109.153z"/></svg>