<svg class="icon" viewBox="0 0 1024 1024" xmlns="http://www.w3.org/2000/svg" width="32" height="32"><defs><style/></defs><path d="M746.246 254.642v55.33h-471.73v-55.33z"/><path d="M289.07 365.3h-27.66V254.64h55.33zm429.52 0h27.66V254.64h-55.33zm-263.54-73.43h110.66v447.61H455.05z"/><path d="M385.17 780.25V731.3l125.21-24.47 125.21 24.47v48.95z"/><path d="M843.62 928.14H177.15c-60.33 0-109.39-49.07-109.39-109.39V207.61c0-60.31 49.06-109.39 109.39-109.39h666.47c60.33 0 109.39 49.07 109.39 109.39v611.14c0 60.32-49.06 109.39-109.39 109.39zM177.15 181.22c-14.56 0-26.39 11.85-26.39 26.39v611.14c0 14.55 11.83 26.39 26.39 26.39h666.47c14.56 0 26.39-11.85 26.39-26.39V207.61c0-14.55-11.83-26.39-26.39-26.39H177.15z"/></svg>