<svg class="icon" viewBox="0 0 1024 1024" xmlns="http://www.w3.org/2000/svg" width="32" height="32"><defs><style/></defs><path d="M195.048 0h633.904A195.048 195.048 0 011024 195.048v633.904A195.048 195.048 0 01828.952 1024H195.048A195.048 195.048 0 010 828.952V195.048A195.048 195.048 0 01195.048 0zm167.594 834.39a15.653 15.653 0 00-15.652 15.652v13.726a15.653 15.653 0 0016.408 15.629c38.839-1.902 66.39-3.17 82.627-3.755A1922.999 1922.999 0 01514 874.106c24.43 0 69.925 1.536 136.46 4.584l22.016.877a15.653 15.653 0 0015.653-15.628v-13.897a15.653 15.653 0 00-15.653-15.653h-2.194c-19.675 0-34.938-1.853-45.812-5.607-10.85-3.73-18.822-9.826-23.917-18.31-4.413-8.826-7.632-22.236-9.68-40.229-2.023-17.993-3.047-49.396-3.047-94.184v-95.232c0-46.592.17-107.86 2.34-328.728a15.653 15.653 0 0115.653-15.457h74.167c51.931 0 86.723 7.216 104.35 21.65 10.606 8.655 21.114 32.06 31.598 70.266a15.653 15.653 0 0017.505 11.312l16.872-2.633a15.653 15.653 0 0013.141-17.335 1871.726 1871.726 0 01-8.07-74.849 1060.157 1060.157 0 01-3.315-82.237 12.312 12.312 0 00-15.044-11.995c-13.97 3.17-27.038 5.241-39.18 6.144-24.624 1.877-68.144 2.803-130.584 2.803H361.765c-55.662 0-95.208-.926-118.638-2.803a307.931 307.931 0 01-36.913-5.462 15.653 15.653 0 00-18.724 14.263c-2.097 31.208-4.34 55.418-6.73 72.655-2.486 18.042-7.46 45.13-14.92 81.286a15.653 15.653 0 0012.068 18.457l18.627 3.95a15.653 15.653 0 0018.164-10.533c12.556-39.375 24.746-63.561 36.571-72.533 19.7-14.922 56.174-22.382 109.47-22.382h71.924c8.656 0 15.653 6.997 15.653 15.628v275.602c0 99.109-.683 167.01-2.024 203.654-1.365 36.645-3.754 59.734-7.143 69.242-5.096 12.557-12.922 21.285-23.406 26.21-10.533 4.925-27.16 7.387-49.908 7.387h-3.194z"/></svg>