<svg class="icon" viewBox="0 0 1024 1024" xmlns="http://www.w3.org/2000/svg" width="32" height="32"><defs><style/></defs><path d="M511.914 67.086c-247.012 0-447.925 172.358-447.925 384.107 0 116.454 62.957 226.027 174.079 301.369l84.114 51.948c-3.612 23.566-18.75 74.482-33.37 115.938-4.3 12.04-.86 25.458 8.428 34.23a32.084 32.084 0 0021.674 8.429c4.473 0 8.773-.86 13.073-2.752 36.467-16.17 147.416-68.978 187.496-125.399 243.572-3.44 440.356-174.422 440.356-383.935.172-211.577-200.74-383.935-447.925-383.935zm68.29 476.823H384.968c-17.718 0-31.995-14.278-31.995-31.995s14.277-31.995 31.995-31.995h195.236c17.717 0 31.994 14.278 31.994 31.995s-14.277 31.995-31.994 31.995zm60.72-127.979H384.969c-17.718 0-31.995-14.277-31.995-31.995s14.277-31.994 31.995-31.994h255.957c17.717 0 31.994 14.277 31.994 31.994 0 17.718-14.277 31.995-31.994 31.995z"/></svg>