<svg class="icon" viewBox="0 0 1024 1024" xmlns="http://www.w3.org/2000/svg" width="32" height="32"><defs><style/></defs><path d="M639.892 415.93H383.935c-17.717 0-31.994-14.277-31.994-31.995s14.277-31.994 31.994-31.994h255.957c17.718 0 31.995 14.277 31.995 31.994s-14.277 31.995-31.995 31.995zm-60.72 127.979H383.935c-17.717 0-31.994-14.278-31.994-31.995s14.45-31.995 31.994-31.995h195.237c17.717 0 31.994 14.278 31.994 31.995s-14.277 31.995-31.994 31.995z"/><path d="M962.247 447.925c0-211.75-200.913-383.936-447.925-383.936S66.225 236.175 66.225 447.925c0 116.453 62.958 226.026 172.875 300.68 14.62 9.977 34.574 6.193 44.38-8.428 9.976-14.621 6.192-34.575-8.43-44.38-92.027-62.441-144.835-152.748-144.835-247.7 0-176.487 172.186-319.946 383.935-319.946s383.936 143.631 383.936 319.946S725.9 768.043 514.15 768.043c-2.064 0-3.612.688-5.504 1.204-15.138-2.752-30.447 5.16-35.78 20.126-6.192 17.373-46.443 46.616-94.09 73.794 17.372-58.141 9.116-70.698 3.44-78.955-6.71-9.976-17.89-15.997-29.931-15.997-17.718 0-31.995 14.277-31.995 31.995 0 5.848 1.548 11.18 4.3 15.997-3.268 18.233-17.2 60.893-33.026 99.768-4.988 12.041-2.064 25.974 7.397 35.091 6.02 5.848 14.105 8.945 22.19 8.945 4.3 0 8.772-.86 13.072-2.752 36.467-16.342 147.589-69.15 187.668-125.57 243.4-3.613 440.356-174.08 440.356-383.764z"/></svg>