<svg class="icon" viewBox="0 0 1024 1024" xmlns="http://www.w3.org/2000/svg" width="32" height="32"><defs><style/></defs><path d="M549.12 643.2L440.747 536.107l1.28-1.28c74.24-82.774 127.146-177.92 158.293-278.614h125.013v-85.546H426.667V85.333h-85.334v85.334H42.667v84.906h476.586A673.835 673.835 0 01384 484.267a672.853 672.853 0 01-98.56-142.934h-85.333c31.146 69.547 73.813 135.254 127.146 194.56l-216.96 214.4 60.374 60.374L384 597.333l132.693 132.694L549.12 643.2zm240.213-216.533H704l-192 512h85.333l48-128H848l48 128h85.333l-192-512zm-112 298.666l69.334-184.96L816 725.333H677.333z"/></svg>