<svg class="icon" viewBox="0 0 1024 1024" xmlns="http://www.w3.org/2000/svg" width="32" height="32"><defs><style/></defs><path d="M736.048 127.978c-65.881 0-128.494 24.943-176.314 70.526-4.644 4.3-28.726 28.727-47.304 47.648l-47.304-47.132c-47.82-45.755-110.605-71.042-177.002-71.042-141.224 0-255.957 114.906-255.957 255.957 0 82.395 41.111 144.32 76.546 182.507l316.85 320.119c25.114 25.114 52.98 41.455 86.695 41.455 33.715 0 61.581-16.341 86.695-41.455l316.678-319.947 2.236-2.408c38.187-47.648 74.31-92.715 74.31-180.098-.172-141.224-115.077-256.13-256.129-256.13z"/></svg>