<svg class="icon" viewBox="0 0 1024 1024" xmlns="http://www.w3.org/2000/svg" width="32" height="32"><defs><style/></defs><path d="M515.698 969.127c-97.188 0-191.28-31.134-270.406-90.479C148.62 806.402 85.835 700.441 68.634 580.72s13.245-238.928 85.663-335.6C304.12 45.24 588.288 4.644 787.997 154.125c83.77 62.785 143.46 153.092 168.23 254.58 4.3 17.374-6.365 34.92-23.739 39.048-17.373 4.128-34.918-6.365-39.047-23.738-21.157-86.867-72.418-164.446-144.148-218.286-171.154-127.979-414.898-93.06-543.048 78.094-62.097 82.911-88.243 185.087-73.45 287.608s68.462 193.344 151.372 255.44c171.326 128.323 414.898 93.404 543.22-77.922 33.544-44.895 56.594-95.123 68.29-149.308 3.785-17.373 21.158-28.554 38.36-24.77 17.373 3.784 28.554 20.986 24.77 38.36-13.761 63.473-40.596 122.13-79.815 174.422-72.418 96.672-178.379 159.457-298.1 176.658-21.674 3.268-43.52 4.816-65.194 4.816z"/></svg>