<svg class="icon" viewBox="0 0 1024 1024" xmlns="http://www.w3.org/2000/svg" width="32" height="32"><defs><style/></defs><path d="M511.914 607.898c-105.96 0-191.968-86.18-191.968-191.968s86.18-191.968 191.968-191.968 191.968 86.18 191.968 191.968-86.007 191.968-191.968 191.968zm0-319.946c-70.526 0-127.979 57.452-127.979 127.978s57.453 127.98 127.979 127.98 127.978-57.453 127.978-127.979-57.28-127.978-127.978-127.978z"/><path d="M511.914 960.01a31.978 31.978 0 01-22.018-8.772c-12.729-12.213-13.245-32.51-1.032-45.24 86.523-90.651 311.174-355.553 311.174-489.896 0-158.769-129.183-287.951-287.952-287.951S224.134 257.333 224.134 416.102c0 75.686 72.59 206.073 204.181 367.422 11.181 13.761 9.117 33.887-4.472 45.068-13.761 11.18-33.887 9.117-45.068-4.472-145.18-178.035-218.802-315.13-218.802-408.19 0-194.032 157.91-351.94 351.941-351.94s352.113 157.908 352.113 351.94c0 187.323-315.474 519.999-328.891 534.104-6.365 6.536-14.621 9.977-23.222 9.977z"/></svg>