<svg class="icon" viewBox="0 0 1024 1024" xmlns="http://www.w3.org/2000/svg" width="32" height="32"><defs><style/></defs><path d="M511.914 63.99c-194.032 0-351.94 157.908-351.94 351.94 0 187.323 315.473 519.999 328.89 534.104 6.02 6.364 14.45 9.977 23.222 9.977h.688c8.945 0 17.546-4.129 23.394-11.01l109.229-125.053c145.18-177.691 218.63-314.958 218.63-407.846 0-194.204-157.91-352.113-352.113-352.113zm0 511.913c-88.415 0-159.973-71.558-159.973-159.973s71.558-159.973 159.973-159.973 159.973 71.558 159.973 159.973-71.558 159.973-159.973 159.973z"/></svg>