<svg class="icon" viewBox="0 0 1024 1024" xmlns="http://www.w3.org/2000/svg" width="32" height="32"><defs><style/></defs><path d="M769.472 202.88a45.568 45.568 0 0164.448 0 455.68 455.68 0 01134.272 324.224A455.68 455.68 0 01833.92 851.328 455.68 455.68 0 01509.696 985.6a455.68 455.68 0 01-324.224-134.272A455.68 455.68 0 0151.2 527.104 455.68 455.68 0 01185.472 202.88a45.568 45.568 0 1164.448 64.448 367.808 367.808 0 000 519.552 367.808 367.808 0 00519.552 0 367.808 367.808 0 000-519.552 45.568 45.568 0 010-64.448zM461.248 92.928c0-26.56 21.376-48.128 48.256-48.128 26.624 0 48.192 22.144 48.192 48.128v337.92a48.064 48.064 0 01-48.192 48.128 48.576 48.576 0 01-48.256-48.128V92.928z"/></svg>