<svg class="icon" viewBox="0 0 1024 1024" xmlns="http://www.w3.org/2000/svg" width="32" height="32"><defs><style/></defs><path d="M761.6 636.8c-12.8 32-35.2 60.8-57.6 86.4a256 256 0 01-86.4 57.6c-32 12.8-67.2 22.4-105.6 22.4-38.4 0-73.6-6.4-105.6-22.4a406.592 406.592 0 01-86.4-57.6 255.744 255.744 0 01-57.6-86.4c-12.8-32-22.4-67.2-22.4-105.6 0-22.4 3.2-44.8 6.4-64 6.4-22.4 12.8-41.6 22.4-60.8 9.6-19.2 22.4-35.2 35.2-54.4a217.136 217.136 0 0148-44.8c9.6-6.4 19.2-9.6 28.8-6.4 9.6 3.2 19.2 6.4 25.6 16 6.4 9.6 9.6 19.2 6.4 28.8-3.2 9.6-6.4 19.2-16 25.6-25.6 19.2-48 41.6-60.8 70.4-12.8 28.8-22.4 57.6-22.4 89.6 0 25.6 6.4 51.2 16 76.8 9.6 25.6 25.6 44.8 41.6 60.8a187.437 187.437 0 0060.8 41.6c24.192 10.496 50.368 16 76.8 16 25.6 0 51.2-6.4 76.8-16 25.6-9.6 44.8-25.6 60.8-41.6 17.728-17.28 31.872-38.016 41.6-60.8 10.496-24.256 16-50.368 16-76.8 0-32-6.4-60.8-19.2-86.4-12.8-25.6-32-51.2-57.6-67.2-9.6-6.4-12.8-16-16-25.6-3.2-9.6 0-19.2 6.4-28.8 6.4-9.6 16-12.8 25.6-16 9.6-3.2 19.2 0 28.8 6.4 16.512 13.248 31.488 28.288 44.8 44.8 12.8 16 25.6 35.2 35.2 51.2 9.6 19.2 16 38.4 22.4 57.6 6.4 19.2 6.4 41.6 6.4 64 3.2 38.4-3.2 73.6-19.2 105.6zm-288-371.2c0-9.6 3.2-19.2 12.8-28.8a40.576 40.576 0 0128.8-12.8c9.6 0 19.2 3.264 25.6 12.8a40.49 40.49 0 0112.8 28.8V496c0 9.6-3.2 19.2-12.8 25.664-6.4 6.4-16 12.8-25.6 12.8a39.04 39.04 0 01-28.8-12.8c-6.4-6.4-12.8-16-12.8-25.6V265.6zM512 0C230.4 0 0 230.4 0 512s230.4 512 512 512 512-230.4 512-512S793.6 0 512 0z"/></svg>