<svg class="icon" viewBox="0 0 1024 1024" xmlns="http://www.w3.org/2000/svg" width="32" height="32"><defs><style/></defs><path d="M350.8 571.82c60.133.668 100.002 42.04 100.676 102.708.463 41.12.093 82.25.093 123.374.005 39.416.272 78.832-.062 118.249-.53 62.047-39.174 104.463-100.939 105.904-80.942 1.888-161.997 1.806-242.955.103C44.639 1020.83 5.52 978.085 5.34 914.643c-.226-79.682-.308-159.363.042-239.05.272-61.569 40.996-103.285 102.451-103.84 80.983-.737 161.988-.824 242.966.066zm535.156-5.147c60.133.67 100.002 42.041 100.676 102.71.463 41.119.092 82.248.092 123.373.006 39.416.273 78.833-.061 118.249-.53 62.047-39.175 104.463-100.939 105.904-80.942 1.889-161.998 1.806-242.955.103-62.974-1.327-102.092-44.073-102.272-107.515-.226-79.681-.309-159.363.041-239.05.273-61.568 40.996-103.285 102.452-103.84 80.983-.736 161.987-.824 242.966.066zm-774.546 72.03c-27.339.227-39.298 12.762-39.416 39.607-.376 78.853-.412 157.717.026 236.57.154 26.294 11.259 38.495 37.203 38.747 79.306.751 158.633.803 237.944.01 27.787-.272 37.445-11.732 37.744-40.497.396-38.572.103-77.144.103-115.717 0-39.431.33-78.863-.103-118.285-.324-28.399-10.801-40.224-38.114-40.44a14590.353 14590.353 0 00-235.387.005zm535.156-5.145c-27.34.226-39.298 12.761-39.416 39.606-.376 78.853-.412 157.717.026 236.57.154 26.295 11.258 38.495 37.203 38.747 79.306.752 158.633.803 237.944.01 27.787-.272 37.445-11.732 37.744-40.496.396-38.573.103-77.145.103-115.717 0-39.432.329-78.864-.103-118.285-.324-28.4-10.801-40.224-38.115-40.44a14590.353 14590.353 0 00-235.386.005zM829.991 34.286c53.268 52.306 106.13 105.05 158.334 158.416 38.763 39.633 37.78 92.587-1.323 132.57-26.51 27.107-53.556 53.68-80.366 80.484-25.687 25.698-51.205 51.565-77.114 77.037-40.795 40.1-93.631 42.56-134.833 3.242C640.695 434.5 587.915 381.612 536.252 327.73c-40.178-41.912-37.816-95.273 3.422-136.742C591.466 138.899 643.35 86.9 695.523 35.192c40.311-39.957 94.048-40.6 134.468-.906zM355.709 47.454c60.133.664 100.002 42.035 100.676 102.704.463 41.124.093 82.254.093 123.379.005 39.416.272 78.832-.062 118.243-.53 62.053-39.174 104.469-100.939 105.91-80.942 1.888-161.997 1.8-242.955.103C49.553 496.46 10.43 453.719 10.25 390.278c-.226-79.682-.308-159.369.042-239.05.272-61.569 40.996-103.285 102.451-103.841 80.984-.736 161.988-.828 242.966.067zM737.167 80.38a21286.722 21286.722 0 00-154.182 154.223c-17.042 17.238-17.752 32.434-1.003 49.502a11232.529 11232.529 0 00155.092 155.113c18.288 17.933 32.058 16.76 51-1.801 25.399-24.88 50.345-50.217 75.493-75.354 25.703-25.703 51.622-51.195 77.031-77.176 18.304-18.72 19.183-33.257 1.518-51.2a13449.875 13449.875 0 00-153.435-153.43c-17.97-17.67-33.936-17.295-51.509.123zm-620.848 33.957c-27.339.227-39.298 12.761-39.416 39.607-.376 78.853-.412 157.711.026 236.57.154 26.289 11.259 38.49 37.203 38.742 79.306.756 158.633.808 237.944.015 27.787-.273 37.445-11.737 37.744-40.502.396-38.567.103-77.14.103-115.712 0-39.432.33-78.863-.103-118.285-.324-28.404-10.8-40.224-38.114-40.445a14590.353 14590.353 0 00-235.387.01z"/></svg>