<svg class="icon" viewBox="0 0 1024 1024" xmlns="http://www.w3.org/2000/svg" width="32" height="32"><defs><style/></defs><path d="M338.688 993.28H127.744c-55.808 0-101.12-45.312-101.12-101.12V681.216c0-55.808 45.312-101.12 101.12-101.12h210.944c55.808 0 101.12 45.312 101.12 101.12V892.16c0 55.552-45.312 101.12-101.12 101.12zm524.544 0H652.288c-55.808 0-101.12-45.312-101.12-101.12V681.216c0-55.808 45.312-101.12 101.12-101.12h210.944c55.808 0 101.12 45.312 101.12 101.12V892.16c0 55.552-45.312 101.12-101.12 101.12zM338.688 478.464H127.744c-55.808 0-101.12-45.312-101.12-101.12V166.4c0-55.808 45.312-101.12 101.12-101.12h210.944c55.808 0 101.12 45.312 101.12 101.12v210.944c0 55.808-45.312 101.12-101.12 101.12zm419.072 43.52c-27.136 0-52.48-10.496-71.424-29.696L537.088 343.04c-39.424-39.424-39.424-103.68 0-143.104L686.336 50.688c39.424-39.424 103.68-39.424 143.104 0l149.248 149.248c39.424 39.424 39.424 103.68 0 143.104L829.184 492.288c-18.944 19.2-44.544 29.696-71.424 29.696z"/></svg>