<svg class="icon" viewBox="0 0 1024 1024" xmlns="http://www.w3.org/2000/svg" width="32" height="32"><defs><style/></defs><path d="M223.962 607.898c-52.98 0-95.984-43.004-95.984-95.984s43.004-95.984 95.984-95.984 95.984 43.004 95.984 95.984-43.003 95.984-95.984 95.984zm287.952 0c-52.98 0-95.984-43.004-95.984-95.984s43.004-95.984 95.984-95.984 95.984 43.004 95.984 95.984-43.004 95.984-95.984 95.984zm288.124 0c-52.98 0-95.984-43.004-95.984-95.984s43.003-95.984 95.984-95.984 95.984 43.004 95.984 95.984-43.176 95.984-95.984 95.984z"/></svg>