<svg class="icon" viewBox="0 0 1024 1024" xmlns="http://www.w3.org/2000/svg" width="32" height="32"><defs><style/></defs><path d="M877.444 872.456s-162.897-82.74-237.724-88.072v-23.738C759.442 709.73 834.784 585.708 834.784 440.7c0-190.075-145.867-344.544-325.106-344.544S184.57 250.796 184.57 440.7c0 146.728 77.406 271.954 199.537 321.667v22.017h-1.549c-69.493 3.44-235.315 87.728-235.315 87.728s-21.674 18.233-19.266 31.994c2.409 13.761 14.794 23.91 29.07 23.91h709.389c14.277 0 26.318-9.805 29.07-23.394 2.753-13.589-18.061-32.166-18.061-32.166z"/></svg>