<svg class="icon" viewBox="0 0 1024 1024" xmlns="http://www.w3.org/2000/svg" width="32" height="32"><defs><style/></defs><path d="M159.973 928.016c-10.665 0-20.986-5.332-27.178-14.965-9.46-14.965-4.989-34.747 9.977-44.208 5.504-3.44 136.579-85.49 240.647-90.651h.516v-17.89c-120.41-49.884-199.708-175.626-199.708-320.462 0-189.56 145.868-343.856 325.279-343.856S834.784 250.109 834.784 439.84c0 144.664-75.858 267.138-195.064 318.398v20.298c104.757 9.46 234.8 86.695 240.476 89.963 15.137 9.117 20.126 28.727 11.01 43.864-9.118 15.137-28.727 20.125-43.864 11.009-1.205-.688-126.259-74.826-214.158-81.363h-25.458c-17.718 0-31.995-14.277-31.995-31.995v-73.966c0-13.589 8.6-25.802 21.674-30.274 105.445-36.295 173.39-140.708 173.39-266.278.172-153.953-116.97-279.523-261.117-279.523-144.148 0-261.29 125.57-261.29 279.867 0 125.742 71.386 233.251 177.519 267.654 13.245 4.3 22.19 16.513 22.19 30.447v72.245c0 17.718-14.277 31.995-31.995 31.995H385.14c-85.835 4.3-206.761 79.987-207.965 80.847-5.333 3.268-11.353 4.988-17.202 4.988z"/></svg>