<svg class="icon" viewBox="0 0 1024 1024" xmlns="http://www.w3.org/2000/svg" width="32" height="32"><defs><style/></defs><path d="M889.829 749.637c-1.204-1.72-119.206-165.821-119.206-287.435 0-168.402-76.202-254.753-162.725-286.92v-15.309c0-52.98-43.176-95.984-95.984-95.984s-95.984 43.176-95.984 95.984v15.31C329.407 207.448 253.205 293.8 253.205 462.201c0 121.27-118.002 285.2-119.206 286.92-5.332 7.568-7.397 16.857-5.332 25.974 2.064 8.944 7.912 16.685 15.997 20.985 5.676 3.097 107.337 57.281 233.423 84.46 21.33 66.397 73.966 111.292 133.655 111.292s112.325-44.895 133.655-111.293c126.086-27.178 227.747-81.018 233.423-83.943 8.257-4.472 13.933-12.04 16.17-20.985 2.236-8.945.343-18.406-5.161-25.975zm-409.91-589.664c0-17.545 14.45-31.995 31.995-31.995s31.995 14.45 31.995 31.995v.86c-7.225-.516-14.278-.86-21.33-.86h-21.33c-7.052 0-14.105.344-21.33.86v-.86zm31.995 768.043c-22.362 0-43.176-13.417-57.969-35.263 19.266 2.064 38.531 3.269 57.969 3.269s38.875-1.377 57.969-3.269c-14.793 21.846-35.607 35.263-57.969 35.263z"/></svg>