<svg class="icon" viewBox="0 0 1024 1024" xmlns="http://www.w3.org/2000/svg" width="32" height="32"><defs><style/></defs><path d="M512 65.983C266.08 65.983 65.983 266.08 65.983 512c0 245.952 200.065 446.017 446.017 446.017S958.017 757.952 958.017 512c0-245.92-200.065-446.017-446.017-446.017zm0 828.034c-210.656 0-382.017-171.392-382.017-382.017 0-210.656 171.36-382.017 382.017-382.017 210.625 0 382.017 171.36 382.017 382.017 0 210.625-171.392 382.017-382.017 382.017z"/><path d="M512 352c-88.224 0-160 71.776-160 160s71.774 160 160 160 160-71.774 160-160-71.776-160-160-160z"/></svg>