<svg class="icon" viewBox="0 0 1024 1024" xmlns="http://www.w3.org/2000/svg" width="32" height="32"><defs><style/></defs><path d="M938.337 255.269c-16.685-6.02-35.09 2.752-40.94 19.438l-24.77 69.493c-29.07-65.537-74.998-123.162-133.482-166.337C553.197 40.25 288.295 77.75 148.965 261.805c-67.43 89.104-95.985 198.849-80.16 308.938 15.826 110.605 74.483 208.48 164.79 275.394 75.686 55.905 164.274 83.083 252.173 83.083 128.494 0 255.269-57.625 338.008-166.853 36.639-48.336 61.58-102.349 74.482-160.834 3.784-17.373-7.225-34.402-24.426-38.187-17.202-3.784-34.403 7.053-38.187 24.426-10.837 49.368-31.995 95.124-62.958 135.891-118.173 156.017-342.996 187.84-500.905 70.87-76.546-56.592-126.086-139.331-139.503-232.907-13.417-93.06 10.665-185.775 67.773-261.117 118.002-156.017 342.653-188.012 500.733-71.042 57.281 42.315 100.113 100.972 123.335 167.198L713.859 353.66c-16.514-6.365-35.091 1.72-41.628 18.234-6.536 16.513 1.72 35.09 18.234 41.627l162.381 63.473c3.784 1.548 7.74 2.236 11.697 2.236.516 0 1.032-.172 1.548-.172 1.204.172 2.408.688 3.612.688 13.245 0 25.63-8.256 30.275-21.33l57.797-161.693c5.848-17.03-2.753-35.435-19.438-41.455z"/></svg>