<svg class="icon" viewBox="0 0 1024 1024" xmlns="http://www.w3.org/2000/svg" width="32" height="32"><defs><style/></defs><path d="M680 480c-4.8-22.4-12.8-43.2-25.6-62.4-12.8-20.8-28.8-36.8-49.6-51.2-19.2-14.4-41.6-22.4-64-27.2-22.4-4.8-44.8-4.8-67.2-1.6-22.4 4.8-43.2 12.8-62.4 25.6-20.8 12.8-36.8 30.4-51.2 49.6-14.4 19.2-22.4 41.6-27.2 64-4.8 22.4-4.8 44.8-1.6 67.2s12.8 43.2 25.6 62.4c12.8 20.8 28.8 36.8 49.6 51.2 19.2 14.4 41.6 22.4 64 27.2 22.4 4.8 44.8 4.8 67.2 1.6 22.4-4.8 43.2-12.8 62.4-25.6 20.8-12.8 36.8-28.8 51.2-49.6 14.4-19.2 22.4-41.6 27.2-64 4.8-22.4 6.4-44.8 1.6-67.2z"/><path d="M512 32C246.4 32 32 246.4 32 512s214.4 480 480 480 480-214.4 480-480S777.6 32 512 32zm257.6 676.8l-104-72C600 720 481.6 740.8 392 680c-92.8-64-116.8-188.8-52.8-281.6 64-92.8 188.8-116.8 281.6-54.4 89.6 60.8 113.6 179.2 59.2 270.4l104 72-14.4 22.4z"/></svg>