<svg class="icon" viewBox="0 0 1024 1024" xmlns="http://www.w3.org/2000/svg" width="32" height="32"><defs><style/></defs><path d="M450.5 64.3c-211.4 0-384.3 172.9-384.3 384.3s172.9 384.3 384.3 384.3S834.8 660 834.8 448.6c0-213.3-172.9-384.3-384.3-384.3zM308.3 246.8c-9.6 3.8-17.3 7.7-25 13.5-7.7 5.8-15.4 11.5-23.1 19.2-5.8 5.8-13.5 13.5-17.3 21.1-5.8 7.7-9.6 17.3-13.5 25-3.8 7.7-11.5 11.5-19.2 7.7-7.7-3.8-11.5-11.5-7.7-19.2 3.8-9.6 9.6-21.1 17.3-30.7 5.8-9.6 13.5-19.2 21.1-26.9 7.7-7.7 17.3-15.4 26.9-21.1 9.6-5.8 19.2-11.5 30.7-17.3 7.7-3.8 17.3 0 19.2 7.7 2.2 9.5-1.7 17.2-9.4 21zm397.8 340.1c-9.6 21.1-21.1 40.4-38.4 57.6-17.3 17.3-36.5 30.7-57.6 38.4-21.1 9.6-44.2 13.5-69.2 13.5-7.7 0-15.4-7.7-15.4-15.4s5.8-15.4 15.4-15.4c19.2 0 38.4-3.8 57.6-11.5 17.3-7.7 34.6-17.3 48-32.7 15.4-13.5 25-30.7 32.7-48s11.5-38.4 11.5-57.6c0-7.7 7.7-15.4 15.4-15.4s15.4 7.7 15.4 15.4c-2 25-7.7 50-15.4 71.1zm234.4 272.9L832.9 748.3c-11.5-11.5-25-17.3-40.4-17.3-15.4 0-28.8 5.8-40.4 17.3-23.1 23.1-23.1 59.6 0 82.6l107.6 111.4c11.5 11.5 25 17.3 40.4 17.3s28.8-5.8 40.4-17.3c23-23 23-59.5 0-82.5z"/></svg>