<svg class="icon" viewBox="0 0 1024 1024" xmlns="http://www.w3.org/2000/svg" width="32" height="32"><defs><style/></defs><path d="M980.576 422.496c-2.304-17.536-13.728-32.896-34.304-37.28H944c-41.152-8.8-70.848-30.72-93.728-68.032-20.576-32.896-27.424-74.56-13.696-111.872 6.848-15.36 2.272-35.104-13.728-48.288-43.424-39.456-96-70.176-155.424-89.92-16-6.592-34.272-2.208-50.272 13.12-25.152 30.72-64 46.08-107.456 46.08-38.848 0-75.424-17.536-107.424-48.256C384 60.512 365.76 62.72 352 67.104c-59.424 24.128-109.728 52.64-153.152 87.744-16 10.976-22.848 30.72-16 48.256 11.424 41.696 6.88 81.184-13.696 116.288-18.304 30.72-52.576 54.848-93.728 65.824-2.272 0-2.272 0-4.576 2.176C57.152 393.984 48 404.96 41.152 420.32v2.176A427.616 427.616 0 0032 512.448c0 28.512 2.272 61.44 9.152 87.744 2.272 17.568 13.696 32.928 34.272 37.312h2.304c41.12 8.768 70.848 30.72 93.696 68 20.576 32.928 27.424 74.592 13.728 111.904-6.848 15.36-2.304 35.104 13.696 48.256 43.424 39.488 96 70.208 157.728 89.952 2.272 0 4.576 2.208 9.152 2.208h6.848a53.44 53.44 0 0036.576-15.36c25.152-28.544 64-46.08 107.424-46.08 38.848 0 75.424 17.536 107.424 48.256 9.152 8.768 20.576 15.36 32 15.36 4.576 0 11.424 0 16-2.176 59.424-24.16 109.728-52.672 153.152-87.776 16-8.768 22.848-30.72 16-48.256-11.456-41.696-6.88-81.184 13.696-116.288 18.304-30.72 52.576-54.848 93.728-65.824 2.272 0 2.272 0 4.576-2.176 13.696-6.592 22.848-17.568 29.696-32.928V602.4c6.88-32.896 9.152-61.44 9.152-89.92-2.272-30.72-4.576-61.44-11.424-89.984zM509.728 663.84c-89.152 0-160-68.032-160-153.6 0-85.536 70.848-153.568 160-153.568 89.12 0 160 68.032 160 153.6 0 85.536-70.88 153.568-160 153.568z"/></svg>