<svg class="icon" viewBox="0 0 1024 1024" xmlns="http://www.w3.org/2000/svg" width="32" height="32"><defs><style/></defs><path d="M512 429.056A82.944 82.944 0 00429.056 512 82.944 82.944 0 00512 594.79 82.944 82.944 0 00594.893 512a82.944 82.944 0 00-82.944-82.893zm0 248.678A165.99 165.99 0 01346.214 512 165.99 165.99 0 01512 346.163 165.99 165.99 0 01677.786 512 165.99 165.99 0 01512 677.734zm-.154 103.63c53.76 0 103.168 21.76 136.858 58.47l78.848-45.568a184.269 184.269 0 0117.254-147.098c26.778-46.746 70.503-78.848 119.501-89.702v-91.034a183.398 183.398 0 01-118.784-88.576c-27.033-46.592-32.921-100.506-17.92-148.275l-78.848-45.568a183.808 183.808 0 01-136.601 58.47c-53.76 0-103.168-21.709-136.91-58.419l-78.847 45.568a184.32 184.32 0 01-17.255 147.098c-26.726 46.745-70.45 78.848-119.45 89.702v90.982a183.398 183.398 0 01118.785 88.525c27.033 46.643 32.921 100.557 17.92 148.327l78.848 45.516a183.808 183.808 0 01135.526-58.47h1.075zm-124.979 154.47a41.37 41.37 0 01-20.685-5.53l-143.564-82.893a41.574 41.574 0 01-15.104-56.78l2.201-3.79c16.999-29.49 16.18-66.252-2.304-98.15-19.097-33.382-50.432-52.377-84.685-52.377h-4.454A41.472 41.472 0 0176.8 594.842V429.056a41.472 41.472 0 0141.472-41.472h4.454c34.253 0 65.588-18.944 83.815-50.79.051-.154.973-1.69 1.024-1.895 18.33-31.59 19.149-68.352 2.048-97.945l-2.1-3.687a41.37 41.37 0 0115.105-56.78l143.564-82.893a41.472 41.472 0 0156.628 15.155l2.252 3.993c16.999 29.39 48.999 46.9 85.658 46.9h.717c38.502 0 70.502-17.51 87.45-46.9l2.303-3.942a41.472 41.472 0 0156.576-15.206l143.616 82.944a41.472 41.472 0 0115.156 56.678l-2.253 3.789c-17.05 29.542-16.18 66.304 2.304 98.253 19.097 33.382 50.432 52.377 84.685 52.377h4.454a41.472 41.472 0 0141.472 41.472v165.735a41.472 41.472 0 01-41.472 41.472h-4.454c-34.253 0-65.588 18.995-83.815 50.841l-1.075 1.843c-18.278 31.59-19.149 68.352-2.048 97.946l2.202 3.789a41.523 41.523 0 01-15.156 56.678l-143.564 82.944a41.574 41.574 0 01-56.628-15.257l-2.304-3.943c-16.947-29.389-48.947-46.899-85.657-46.899h-.666c-38.502 0-70.502 17.51-87.5 46.9l-2.253 3.993a41.472 41.472 0 01-35.943 20.685z"/></svg>