<svg class="icon" viewBox="0 0 1024 1024" xmlns="http://www.w3.org/2000/svg" width="32" height="32"><defs><style/></defs><path d="M957.259 404.233c-3.785-11.353-13.59-19.61-25.459-21.502l-270.406-41.799L540.64 82.395c-5.332-11.181-16.513-18.406-28.898-18.406-12.385 0-23.566 7.053-28.898 18.406l-121.786 258.02-270.923 40.768c-11.869 1.72-21.673 9.977-25.63 21.33s-1.032 23.91 7.397 32.51l196.44 202.117-46.96 284.856c-2.064 12.04 3.096 24.254 13.073 31.306 9.977 7.053 23.222 7.74 33.887 1.892l241.852-132.967L751.53 956.054c4.816 2.58 10.148 3.957 15.48 3.957h.689c17.717 0 31.995-14.277 31.995-31.995 0-3.956-.688-7.74-2.065-11.353L752.734 638 949.69 436.744c8.429-8.6 11.353-21.158 7.569-32.51z"/></svg>