<svg class="icon" viewBox="0 0 1024 1024" xmlns="http://www.w3.org/2000/svg" width="32" height="32"><defs><style/></defs><path d="M861.44 64H162.56A100.352 100.352 0 0064 165.504v692.672A99.904 99.904 0 00162.24 960h699.904A100.096 100.096 0 00960 858.176V165.824A100.224 100.224 0 00861.44 64zM384 640V448h256v192zm256 71.68v180.672H384V711.68zM129.472 448H320v192H129.472zM704 448h190.528v192H704zM162.56 131.648h698.88a33.728 33.728 0 0133.088 34.176V384H129.472V190.656c0-43.648 14.464-59.008 33.088-59.008zm-33.088 726.528V711.68H320v180.672H162.56a33.728 33.728 0 01-33.088-34.176zm731.968 34.176H704V711.68h190.528v146.496a33.92 33.92 0 01-33.088 34.176z"/></svg>