<svg class="icon" viewBox="0 0 1024 1024" xmlns="http://www.w3.org/2000/svg" width="32" height="32"><defs><style/></defs><path d="M919.84 314.912L673.024 72.928c-6.08-5.952-14.016-8.928-22.752-9.152-8.512.096-16.64 3.552-22.56 9.632l-459.2 470.4c-4.416 4.512-7.392 10.272-8.576 16.448L97.984 890.912c-1.984 10.592 1.472 21.44 9.216 28.896 6.016 5.856 14.016 8.992 22.24 8.992 2.304 0 4.672-.256 6.976-.768l292.448-65.216c6.112-1.344 11.712-4.512 16.064-9.024l475.584-493.824c12.16-12.672 11.872-32.768-.672-45.056zM433.792 773.088L311.264 651.616c-12.576-12.48-32.864-12.384-45.248.192-12.448 12.576-12.352 32.8.192 45.248l112.384 111.392-208.768 46.592 51.264-273.472 430.048-440.48L852.384 338.4 433.792 773.088z"/></svg>